<svg width="76" height="76" viewBox="0 0 76 76" fill="none" xmlns="http://www.w3.org/2000/svg">
<path d="M75.5 38C75.5 58.7107 58.7107 75.5 38 75.5C17.2893 75.5 0.5 58.7107 0.5 38C0.5 17.2893 17.2893 0.499987 38 0.499987C58.7107 0.499987 75.5 17.2893 75.5 38Z" fill="white" stroke="black"/>
<path d="M56.0001 48.8608C56.0001 49.5732 55.7332 50.2564 55.2581 50.7601C54.783 51.2639 54.1386 51.5469 53.4668 51.5469H23.0667C22.3948 51.5469 21.7504 51.2639 21.2753 50.7601C20.8002 50.2564 20.5333 49.5732 20.5333 48.8608V32.7443C20.5333 32.0319 20.8002 31.3487 21.2753 30.845C21.7504 30.3412 22.3948 30.0582 23.0667 30.0582H26.0358C28.0504 30.0571 29.9821 29.2078 31.4064 27.6972L33.5091 25.4731C33.9829 24.9706 34.625 24.6877 35.2951 24.6861H41.2333C41.9051 24.6862 42.5494 24.9693 43.0243 25.4731L45.1219 27.6972C45.8278 28.4458 46.6659 29.0397 47.5883 29.4448C48.5107 29.8499 49.4993 30.0584 50.4977 30.0582H53.4668C54.1386 30.0582 54.783 30.3412 55.2581 30.845C55.7332 31.3487 56.0001 32.0319 56.0001 32.7443V48.8608ZM23.0667 27.3722C21.7229 27.3722 20.4342 27.9382 19.484 28.9456C18.5338 29.9531 18 31.3195 18 32.7443V48.8608C18 50.2856 18.5338 51.652 19.484 52.6595C20.4342 53.667 21.7229 54.233 23.0667 54.233H53.4668C54.8105 54.233 56.0993 53.667 57.0494 52.6595C57.9996 51.652 58.5334 50.2856 58.5334 48.8608V32.7443C58.5334 31.3195 57.9996 29.9531 57.0494 28.9456C56.0993 27.9382 54.8105 27.3722 53.4668 27.3722H50.4977C49.154 27.3719 47.8655 26.8057 46.9155 25.7981L44.8179 23.574C43.868 22.5665 42.5795 22.0003 41.2358 22H35.2976C33.954 22.0003 32.6655 22.5665 31.7155 23.574L29.6179 25.7981C28.6679 26.8057 27.3794 27.3719 26.0358 27.3722H23.0667Z" fill="black"/>
<path d="M38.2668 46.1753C36.5871 46.1753 34.9762 45.4678 33.7884 44.2085C32.6007 42.9492 31.9334 41.2411 31.9334 39.4601C31.9334 37.6791 32.6007 35.9711 33.7884 34.7118C34.9762 33.4524 36.5871 32.7449 38.2668 32.7449C39.9465 32.7449 41.5574 33.4524 42.7451 34.7118C43.9328 35.9711 44.6001 37.6791 44.6001 39.4601C44.6001 41.2411 43.9328 42.9492 42.7451 44.2085C41.5574 45.4678 39.9465 46.1753 38.2668 46.1753ZM38.2668 48.8614C40.6183 48.8614 42.8736 47.8709 44.5364 46.1078C46.1993 44.3448 47.1334 41.9535 47.1334 39.4601C47.1334 36.9668 46.1993 34.5755 44.5364 32.8124C42.8736 31.0493 40.6183 30.0588 38.2668 30.0588C35.9152 30.0588 33.6599 31.0493 31.9971 32.8124C30.3343 34.5755 29.4001 36.9668 29.4001 39.4601C29.4001 41.9535 30.3343 44.3448 31.9971 46.1078C33.6599 47.8709 35.9152 48.8614 38.2668 48.8614ZM25.6001 34.088C25.6001 34.4442 25.4667 34.7858 25.2291 35.0376C24.9916 35.2895 24.6694 35.431 24.3334 35.431C23.9975 35.431 23.6753 35.2895 23.4378 35.0376C23.2002 34.7858 23.0668 34.4442 23.0668 34.088C23.0668 33.7318 23.2002 33.3902 23.4378 33.1383C23.6753 32.8864 23.9975 32.7449 24.3334 32.7449C24.6694 32.7449 24.9916 32.8864 25.2291 33.1383C25.4667 33.3902 25.6001 33.7318 25.6001 34.088Z" fill="black"/>
</svg>
