<svg width="52" height="52" viewBox="0 0 52 52" fill="none" xmlns="http://www.w3.org/2000/svg">
<path d="M7 12H45L41.2475 45.7725C41.1189 46.9348 40.566 48.0087 39.6948 48.7888C38.8237 49.5688 37.6954 50.0001 36.526 50H15.474C14.3046 50.0001 13.1763 49.5688 12.3052 48.7888C11.434 48.0087 10.8811 46.9348 10.7525 45.7725L7 12Z" stroke="black" stroke-width="3" stroke-linecap="round" stroke-linejoin="round"/>
<path d="M15.1383 4.8675C15.5158 4.00992 16.113 3.28499 16.8603 2.77728C17.6077 2.26956 18.4744 1.99999 19.3593 2H32.6407C33.526 1.99951 34.3932 2.26887 35.141 2.77661C35.8888 3.28435 36.4864 4.00953 36.864 4.8675L40 12H12L15.1383 4.8675Z" stroke="black" stroke-width="3" stroke-linecap="round" stroke-linejoin="round"/>
<path d="M2 12H50" stroke="black" stroke-width="3" stroke-linecap="round" stroke-linejoin="round"/>
<path d="M21 24V36" stroke="black" stroke-width="3" stroke-linecap="round" stroke-linejoin="round"/>
<path d="M31 24V36" stroke="black" stroke-width="3" stroke-linecap="round" stroke-linejoin="round"/>
</svg>
