<svg width="46" height="43" viewBox="0 0 46 43" fill="none" xmlns="http://www.w3.org/2000/svg">
<path d="M33.0104 6.80717L38.4455 11.9129L33.0104 6.80717ZM36.5055 2.30918L21.809 16.1215C21.0497 16.8342 20.5318 17.7422 20.3206 18.7311L18.9631 25.1175L25.7584 23.8392C26.8105 23.6415 27.7754 23.1567 28.535 22.4428L43.2315 8.63049C43.6731 8.21542 44.0234 7.72267 44.2624 7.18037C44.5014 6.63806 44.6244 6.05682 44.6244 5.46983C44.6244 4.88285 44.5014 4.30161 44.2624 3.7593C44.0234 3.217 43.6731 2.72425 43.2315 2.30918C42.7898 1.89412 42.2655 1.56488 41.6885 1.34025C41.1115 1.11562 40.493 1 39.8685 1C39.2439 1 38.6255 1.11562 38.0485 1.34025C37.4714 1.56488 36.9471 1.89412 36.5055 2.30918V2.30918Z" stroke="black" stroke-width="2" stroke-linecap="round" stroke-linejoin="round"/>
<path d="M39.4926 29.9409V37.1763C39.4926 38.4556 38.9519 39.6824 37.9894 40.587C37.0269 41.4916 35.7215 41.9998 34.3603 41.9998H6.13235C4.77117 41.9998 3.46573 41.4916 2.50323 40.587C1.54073 39.6824 1 38.4556 1 37.1763V10.6466C1 9.36728 1.54073 8.14039 2.50323 7.23579C3.46573 6.33119 4.77117 5.823 6.13235 5.823H13.8309" stroke="black" stroke-width="2" stroke-linecap="round" stroke-linejoin="round"/>
</svg>
