<svg width="1440" height="347" viewBox="0 10 1440 330" fill="none" xmlns="http://www.w3.org/2000/svg">
<circle cx="222.5" cy="296" r="49.5" fill="#F45B69"/>
<circle cx="809.5" cy="197" r="49.5" fill="#F45B69"/>
<path d="M90 169C65.8628 192.353 80 231.5 80 231.5H0V0H1439V180.5H1346C1346 180.5 1345.45 159.165 1346 111.5C1346.55 63.8348 1248.17 55.9518 1247.5 111.5C1246.83 167.048 1247.5 298 1247.5 298H1152.5C1152.5 298 1151.9 219.69 1152.5 180.5C1153.1 141.31 1055.78 124.855 1055 180.5C1054.73 199.623 1054.65 209.618 1054.65 214.5H1055C1055 214.5 1054.66 223.824 1054.65 214.5H956V75.5C956 20.5 858.5 18 858.5 75.5V206.5H759.5V298H664C664 298 664.117 197.471 664 147.5C663.883 97.5291 566.875 97.7354 567 147.5C567.125 197.265 567 258 567 258H467.5V123H372L367.5 41.5C328.052 1.52624 310.448 1.2996 271 41.5V298H175.5V181C175.5 145.9 124.157 135.953 90 169Z" fill="#F45B69"/>
<circle cx="30.5" cy="229" r="49.5" fill="#F45B69"/>
<circle cx="1390.5" cy="165" r="49.5" fill="#F45B69"/>
<circle cx="1198.5" cy="297" r="49.5" fill="#F45B69"/>
<circle cx="420.5" cy="115" r="49.5" fill="#F45B69"/>
<circle cx="1007.5" cy="214" r="49.5" fill="#F45B69"/>
<circle cx="710.5" cy="296" r="49.5" fill="#F45B69"/>
<circle cx="519.5" cy="247" r="49.5" fill="#F45B69"/>
</svg>
